<svg width="55" height="23" viewBox="0 0 55 23" fill="none" xmlns="http://www.w3.org/2000/svg">
<path fill-rule="evenodd" clip-rule="evenodd" d="M15.0901 0.0111499H8.9917L0 22.9888H5.03L6.677 18.5983H17.1155L18.7625 22.9888H24.0596L15.0901 0.0111499ZM13.3986 8.72533L15.5797 14.5644H8.1682L10.3494 8.72533C10.6165 8.01213 11.1061 6.49663 11.7961 4.20103H11.9519C12.6418 6.49663 13.1315 8.01213 13.3986 8.72533ZM26.0596 0.0111499H30.9116V22.9888H26.0596V0.0111499ZM46.086 0H33.9116V23H38.7635V14.4195H45.1735L49.2242 23H54.477L49.8029 13.6395C52.4737 12.5697 53.809 10.4079 53.809 7.19863C53.809 4.92543 53.1637 3.16473 51.8728 1.89438C50.5819 0.62404 48.6455 0 46.086 0ZM48.0669 9.51643C47.5105 10.0736 46.7092 10.3633 45.6631 10.3633H38.7635V4.12307H45.6631C46.7092 4.12307 47.5105 4.39053 48.0669 4.92543C48.6233 5.46023 48.9126 6.21803 48.9126 7.19863C48.9126 8.17923 48.6233 8.95933 48.0669 9.51643Z" fill="white"/>
</svg>
