<svg width="400" height="400" viewBox="0 0 400 400" fill="none" xmlns="http://www.w3.org/2000/svg">
<rect width="400" height="400" rx="10" fill="white"/>
<g clip-path="url(#clip0_1_2)">
<mask id="mask0_1_2" style="mask-type:luminance" maskUnits="userSpaceOnUse" x="49" y="42" width="301" height="315">
<path d="M350 42H49V357H350V42Z" fill="white"/>
</mask>
<g mask="url(#mask0_1_2)">
<mask id="mask1_1_2" style="mask-type:luminance" maskUnits="userSpaceOnUse" x="49" y="42" width="301" height="315">
<path d="M349.938 42H49V356.376H349.938V42Z" fill="white"/>
</mask>
<g mask="url(#mask1_1_2)">
<mask id="mask2_1_2" style="mask-type:luminance" maskUnits="userSpaceOnUse" x="49" y="42" width="301" height="315">
<path d="M349.938 42H49V356.376H349.938V42Z" fill="white"/>
</mask>
<g mask="url(#mask2_1_2)">
<path d="M256.565 235.6C255.505 225.09 251.996 215.281 247.41 205.894C240.923 192.576 231.752 181.286 220.367 171.758C211.197 164.086 201.044 158.16 189.815 154.012C179.225 150.098 168.339 147.79 157.001 147.79C153.679 147.79 150.326 147.494 147.051 147.852C140.891 148.539 134.699 149.225 128.679 150.581C119.587 152.64 111.025 156.055 102.946 160.593V42L49 65.9057V265.291L49.1404 265.198C49.1404 265.198 49.1404 265.276 49.1404 265.323H94.5711C93.3702 260.582 92.528 255.685 92.528 250.555C92.528 217.995 118.339 191.578 150.17 191.578C182.001 191.578 207.813 217.979 207.813 250.555C207.813 283.131 182.001 309.516 150.17 309.516C144.291 309.516 138.723 308.347 133.374 306.678C133.358 321.976 133.342 337.274 133.42 352.571C133.42 353.273 134.372 354.443 135.027 354.567C138.115 355.129 141.249 355.659 144.384 355.721C151.948 355.862 159.606 356.501 167.061 355.55C178.118 354.115 188.801 350.965 198.954 345.959C208.889 341.078 217.872 334.966 225.81 327.356C236.103 317.485 244.011 305.898 249.703 292.768C255.208 280.043 257.782 266.695 258.125 252.941C258.265 247.171 257.142 241.354 256.55 235.569" fill="black"/>
</g>
<path d="M349.938 44.3079H292.233V267.927H349.938V44.3079Z" fill="black"/>
<path d="M349.064 299.255H292.233V356.08H349.064V299.255Z" fill="#EB354D"/>
<path d="M49 324.268V356.376H81.1119L155.832 251.459L49 324.268Z" fill="#EB354D"/>
</g>
</g>
</g>
<defs>
<clipPath id="clip0_1_2">
<rect width="301" height="315" fill="white" transform="translate(49 42)"/>
</clipPath>
</defs>
</svg>
